<?xml version="1.0" encoding="UTF-8" standalone="no"?>
<!DOCTYPE svg PUBLIC "-//W3C//DTD SVG 1.1//EN"
"http://www.w3.org/Graphics/SVG/1.1/DTD/svg11.dtd">
<svg viewBox="0 0 909 1286" version="1.1" xmlns="http://www.w3.org/2000/svg" xmlns:xlink="http://www.w3.org/1999/xlink">
<defs>
<style type="text/css"><![CDATA[
.g0_51{
fill: #00F;
}
.g1_51{
fill: #000;
}
]]></style>
</defs>
<path d="M705,88.9h93.1v-.8H705v.8Z" class="g0_51"/>
<path d="M110,93.2H807.8V92H110v1.2Z" class="g1_51"/>
<path d="M290.4,171.9H477.3V171H290.4v.9Z" class="g0_51"/>
<path d="M291.3,210.9H465.9v-.8H291.3v.8Z" class="g0_51"/>
<path d="M290.4,289.2H490.2v-.9H290.4v.9Z" class="g0_51"/>
<path d="M289.9,328.3H469.7v-.9H289.9v.9Z" class="g0_51"/>
<path d="M291.7,367.4H505.2v-.8H291.7v.8Z" class="g0_51"/>
<path d="M290.7,406.5H445.8v-.9H290.7v.9Z" class="g0_51"/>
<path d="M290.4,562.9H544.5v-.8H290.4v.8Z" class="g0_51"/>
<path d="M289.9,602.1H397.3v-.9H289.9v.9Z" class="g0_51"/>
<path d="M289.3,641.2H476.4v-.9H289.3v.9Z" class="g0_51"/>
<path d="M290.4,680.3H518.6v-.9H290.4v.9Z" class="g0_51"/>
<path d="M290.3,719.4H480.5v-.8H290.3v.8Z" class="g0_51"/>
<path d="M291,758.5H727.9v-.9H291v.9Z" class="g0_51"/>
<path d="M289.3,875.9H497.7V875H289.3v.9Z" class="g0_51"/>
<path d="M289.4,914.9H725.5v-.8H289.4v.8Z" class="g0_51"/>
</svg>